<svg xmlns="http://www.w3.org/2000/svg" viewBox="0 0 800 329.45"><defs><style>.cls-1{isolation:isolate;}.cls-2{fill:#fff;opacity:0.45;mix-blend-mode:screen;}.cls-3{fill:#404040;}.cls-4{fill:gray;}</style></defs><title>Asset 2</title><g class="cls-1"><g id="Layer_2" data-name="Layer 2"><g id="Background"><rect class="cls-2" width="800" height="329.45"/></g><g id="Objects"><path class="cls-3" d="M335.63,52.63a1.79,1.79,0,1,1,1.79-1.79A1.8,1.8,0,0,1,335.63,52.63Zm0-3.09a1.29,1.29,0,1,0,1.29,1.29A1.3,1.3,0,0,0,335.63,49.54Z"/><path class="cls-3" d="M313.12,62.8a2.46,2.46,0,1,1,2.46-2.46A2.46,2.46,0,0,1,313.12,62.8Zm0-4.41a2,2,0,1,0,2,2A2,2,0,0,0,313.12,58.38Z"/><path class="cls-3" d="M345.74,61.35H325a1.3,1.3,0,0,1,0-2.59h20.7a1.3,1.3,0,1,1,0,2.59ZM325,59.26a.8.8,0,0,0,0,1.59h20.7a.8.8,0,1,0,0-1.59Z"/><path class="cls-3" d="M335.43,320.19a9.57,9.57,0,1,1,9.57-9.57A9.59,9.59,0,0,1,335.43,320.19Zm0-18.65a9.07,9.07,0,1,0,9.07,9.08A9.09,9.09,0,0,0,335.43,301.54Z"/><path class="cls-3" d="M335.43,322.07a11.46,11.46,0,1,1,11.46-11.46A11.47,11.47,0,0,1,335.43,322.07Zm0-22.41a11,11,0,1,0,11,11A11,11,0,0,0,335.43,299.65Z"/><path class="cls-3" d="M265.86,90H264.1V78.23h1.76Zm-1.26-.5h.76V78.73h-.76Z"/><path class="cls-3" d="M265.86,124.76H264.1v-22h1.76Zm-1.26-.5h.76v-21h-.76Z"/><path class="cls-3" d="M265.86,151.16H264.1V129.05h1.76Zm-1.26-.5h.76V129.55h-.76Z"/><path class="cls-3" d="M318.19,170l-5.44,20.28h7.79V183h1.84v7.38H327v1.84h-4.61v10.14h-1.84V192.17h-9.68v-1.84L316.25,170Z"/><path class="cls-3" d="M331.14,200.7a1.65,1.65,0,1,1,.48,1.13A1.55,1.55,0,0,1,331.14,200.7Z"/><path class="cls-3" d="M354.35,174.88a23.8,23.8,0,0,1-1.34,4,25.71,25.71,0,0,1-1.82,3.41q-1,1.59-2.07,3.16t-2.19,3.39a25.34,25.34,0,0,0-3.32,8.32,22.79,22.79,0,0,0-.48,5.16h-1.84a25.2,25.2,0,0,1,.51-5.55,27,27,0,0,1,1.45-4.82,26.53,26.53,0,0,1,2-4q1.13-1.8,2.28-3.55l1.75-2.7a28.83,28.83,0,0,0,1.61-2.86,21.79,21.79,0,0,0,1.27-3.23,23.84,23.84,0,0,0,.81-3.76H339V170h16A26.13,26.13,0,0,1,354.35,174.88Z"/><path class="cls-3" d="M361,175.11l1.8-5.53h2l-2.35,5.53Z"/><path class="cls-3" d="M373.14,175.11l1.8-5.53h2l-2.35,5.53Z"/><rect class="cls-4" x="250.04" y="251.4" width="96.11" height="0.5" transform="translate(-67.44 387.94) rotate(-60.62)"/><rect class="cls-4" x="324.88" y="119.05" width="95.59" height="0.5" transform="translate(87.12 386.84) rotate(-60.89)"/><path class="cls-3" d="M396.3,293.84h-122V77h122Zm-121.53-.5h121V77.49h-121Z"/><path class="cls-3" d="M383.15,326.06H287.42A19.13,19.13,0,0,1,268.31,307v-242a19.13,19.13,0,0,1,19.11-19.11h95.73a19.13,19.13,0,0,1,19.11,19.11V307A19.13,19.13,0,0,1,383.15,326.06ZM287.42,46.33a18.63,18.63,0,0,0-18.61,18.61V307a18.63,18.63,0,0,0,18.61,18.61h95.73A18.63,18.63,0,0,0,401.76,307v-242a18.63,18.63,0,0,0-18.61-18.61Z"/><path class="cls-3" d="M386.81,329.45H284.48a19.38,19.38,0,0,1-19.36-19.36V151.41h-1.27V128.8h1.27V125h-1.27V102.47h1.27V90.22h-1.27V78h1.27V61.79a19.38,19.38,0,0,1,19.36-19.36H386.81a19.38,19.38,0,0,1,19.36,19.36v248.3A19.38,19.38,0,0,1,386.81,329.45Zm-122-179h1.27V310.09a18.38,18.38,0,0,0,18.36,18.36H386.81a18.38,18.38,0,0,0,18.36-18.36V61.79a18.38,18.38,0,0,0-18.36-18.36H284.48a18.38,18.38,0,0,0-18.36,18.36V79h-1.27V89.22h1.27v14.26h-1.27V124h1.27v5.79h-1.27Z"/><path class="cls-3" d="M195.82,326.28H76.51a18.48,18.48,0,0,1-18.46-18.46V21.4A18.48,18.48,0,0,1,76.51,2.94H195.82A18.48,18.48,0,0,1,214.28,21.4V307.83A18.48,18.48,0,0,1,195.82,326.28ZM76.51,3.44a18,18,0,0,0-18,18V307.83a18,18,0,0,0,18,18H195.82a18,18,0,0,0,18-18V21.4a18,18,0,0,0-18-18Z"/><path class="cls-3" d="M135.86,12.8a2,2,0,1,1,2-2A2,2,0,0,1,135.86,12.8Zm0-3.54a1.52,1.52,0,1,0,1.52,1.52A1.52,1.52,0,0,0,135.86,9.26Z"/><path class="cls-3" d="M114.11,22.92a2.78,2.78,0,1,1,2.78-2.78A2.78,2.78,0,0,1,114.11,22.92Zm0-5.06a2.28,2.28,0,1,0,2.28,2.28A2.28,2.28,0,0,0,114.11,17.86Z"/><path class="cls-3" d="M145.16,21.4H126.32a1.45,1.45,0,1,1,0-2.9h18.84a1.45,1.45,0,1,1,0,2.9ZM126.32,19a1,1,0,1,0,0,1.9h18.84a1,1,0,1,0,0-1.9Z"/><path class="cls-3" d="M136.17,319a9.48,9.48,0,1,1,9.48-9.48A9.49,9.49,0,0,1,136.17,319Zm0-18.47a9,9,0,1,0,9,9A9,9,0,0,0,136.17,300.54Z"/><path class="cls-3" d="M136.17,320.87a11.35,11.35,0,1,1,11.35-11.35A11.36,11.36,0,0,1,136.17,320.87Zm0-22.19A10.85,10.85,0,1,0,147,309.53,10.86,10.86,0,0,0,136.17,298.68Z"/><path class="cls-3" d="M55.75,51.65H53.8V38.26h1.95Zm-1.45-.5h.95V38.76H54.3Z"/><path class="cls-3" d="M55.75,84.48H53.8V63.42h1.95ZM54.3,84h.95V63.92H54.3Z"/><path class="cls-3" d="M55.75,109.64H53.8V88.57h1.95Zm-1.45-.5h.95V89.07H54.3Z"/><rect class="cls-4" x="35.45" y="240.52" width="115.87" height="0.5" transform="translate(-162.18 203.65) rotate(-60.53)"/><rect class="cls-4" x="120.84" y="88.52" width="115.87" height="0.5" transform="translate(13.55 200.75) rotate(-60.53)"/><path class="cls-3" d="M123.58,169.71a8.21,8.21,0,0,0-.6-3.16,7.52,7.52,0,0,0-1.64-2.49,7.42,7.42,0,0,0-2.42-1.61,7.6,7.6,0,0,0-3-.58,7.23,7.23,0,0,0-2.1.3A8.79,8.79,0,0,0,112,163h-1.84V149.61H124v1.84H112v9.45a8.94,8.94,0,0,1,4-.88,9.25,9.25,0,0,1,3.66.74,9.5,9.5,0,0,1,3,2,9.39,9.39,0,0,1,2,3.07,9.94,9.94,0,0,1,.74,3.85v2.72a9.94,9.94,0,0,1-.74,3.85,9.37,9.37,0,0,1-2,3.07,9.48,9.48,0,0,1-3,2,9.48,9.48,0,0,1-8-.32,9.6,9.6,0,0,1-3.3-2.81l1.52-1.06a7.73,7.73,0,0,0,2.63,2.26,7.36,7.36,0,0,0,3.5.83,7.58,7.58,0,0,0,3-.58,7.42,7.42,0,0,0,2.42-1.61,7.54,7.54,0,0,0,1.64-2.49,8.21,8.21,0,0,0,.6-3.16Z"/><path class="cls-3" d="M130,180.27a1.65,1.65,0,1,1,.48,1.13A1.55,1.55,0,0,1,130,180.27Z"/><path class="cls-3" d="M152.67,169.71a8.21,8.21,0,0,0-.6-3.16,7.53,7.53,0,0,0-1.64-2.49,7.43,7.43,0,0,0-2.42-1.61,7.6,7.6,0,0,0-3-.58,7.23,7.23,0,0,0-2.1.3,8.79,8.79,0,0,0-1.87.81h-1.84V149.61h13.83v1.84h-12v9.45a8.94,8.94,0,0,1,4-.88,9.25,9.25,0,0,1,3.67.74,9.5,9.5,0,0,1,3,2,9.39,9.39,0,0,1,2,3.07,9.94,9.94,0,0,1,.74,3.85v2.72a9.94,9.94,0,0,1-.74,3.85,9.37,9.37,0,0,1-2,3.07,9.49,9.49,0,0,1-3,2,9.48,9.48,0,0,1-8-.32,9.59,9.59,0,0,1-3.3-2.81l1.52-1.06a7.73,7.73,0,0,0,2.63,2.26,7.36,7.36,0,0,0,3.5.83,7.58,7.58,0,0,0,3-.58,7.42,7.42,0,0,0,2.42-1.61,7.55,7.55,0,0,0,1.64-2.49,8.21,8.21,0,0,0,.6-3.16Z"/><path class="cls-3" d="M161,154.68l1.8-5.53h2l-2.35,5.53Z"/><path class="cls-3" d="M173.09,154.68l1.8-5.53h2l-2.35,5.53Z"/><path class="cls-3" d="M207.66,291.49h-143V37.79h143ZM65.17,291h142V38.29h-142Z"/><path class="cls-3" d="M198,329.45H74.37A19.38,19.38,0,0,1,55,310.09V109.89H53.55V88.32H55V84.73H53.55V63.17H55V51.9H53.55V38H55V19.36A19.38,19.38,0,0,1,74.37,0H198a19.38,19.38,0,0,1,19.36,19.36V310.09A19.38,19.38,0,0,1,198,329.45ZM54.55,108.89H56v201.2a18.38,18.38,0,0,0,18.36,18.36H198a18.38,18.38,0,0,0,18.36-18.36V19.36A18.38,18.38,0,0,0,198,1H74.37A18.38,18.38,0,0,0,56,19.36V39H54.55V50.9H56V64.17H54.55V83.73H56v5.59H54.55Z"/><path class="cls-3" d="M498.85,94.95a1.64,1.64,0,1,1,1.64-1.64A1.64,1.64,0,0,1,498.85,94.95Zm0-2.79A1.14,1.14,0,1,0,500,93.31,1.14,1.14,0,0,0,498.85,92.16Z"/><path class="cls-3" d="M515.31,86a2.53,2.53,0,1,1,2.53-2.53A2.53,2.53,0,0,1,515.31,86Zm0-4.55a2,2,0,1,0,2,2A2,2,0,0,0,515.31,81.41Z"/><path class="cls-3" d="M524.77,94.58H505.43a1.38,1.38,0,0,1,0-2.74h19.34a1.38,1.38,0,0,1,0,2.74Zm-19.34-2.24a.89.89,0,0,0,0,1.74h19.34a.89.89,0,0,0,0-1.74Z"/><path class="cls-3" d="M515.47,319.52a9.44,9.44,0,1,1,9.44-9.44A9.45,9.45,0,0,1,515.47,319.52Zm0-18.38a8.94,8.94,0,1,0,8.94,8.94A9,9,0,0,0,515.47,301.13Z"/><path class="cls-3" d="M515.47,321.37a11.3,11.3,0,1,1,11.29-11.3A11.31,11.31,0,0,1,515.47,321.37Zm0-22.09a10.8,10.8,0,1,0,10.79,10.8A10.81,10.81,0,0,0,515.47,299.28Z"/><path class="cls-3" d="M556.86,71.1H535.94V69.46h20.92Zm-20.42-.5h19.92V70H536.44Z"/><path class="cls-3" d="M576.46,95.15h-3v-2.4h3Zm-2.78-.25h2.53V93h-2.53Z"/><path class="cls-3" d="M457.36,95.15H454v-2.4h3.38Zm-3.13-.25h2.88V93h-2.88Z"/><path class="cls-3" d="M576.46,307h-3v-2.4h3Zm-2.78-.25h2.53v-1.9h-2.53Z"/><path class="cls-3" d="M457.38,307H454v-2.4h3.39Zm-3.14-.25h2.89v-1.9h-2.89Z"/><path class="cls-3" d="M454.36,118.31h-1.64V106.19h1.64Zm-1.14-.5h.64V106.69h-.64Z"/><path class="cls-3" d="M454.36,140.37h-1.64v-9.81h1.64Zm-1.14-.5h.64v-8.81h-.64Z"/><path class="cls-3" d="M454.36,161.67h-1.64v-10h1.64Zm-1.14-.5h.64v-9h-.64Z"/><path class="cls-3" d="M511,185.58l-5.44,20.28h7.79v-7.38h1.85v7.38h4.61v1.84h-4.61v10.14h-1.85V207.71h-9.68v-1.84l5.39-20.28Z"/><path class="cls-3" d="M525.83,190.65l1.8-5.53h2l-2.35,5.53Z"/><path class="cls-3" d="M538,190.65l1.8-5.53h2l-2.35,5.53Z"/><rect class="cls-4" x="442.57" y="256.14" width="82.11" height="0.5" transform="translate(23.03 552.16) rotate(-60.64)"/><rect class="cls-4" x="506.51" y="143.07" width="81.67" height="0.5" transform="translate(156.13 552.07) rotate(-60.93)"/><path class="cls-3" d="M567.57,292.48H463.23V107.14H567.57ZM463.73,292H567.07V107.64H463.73Z"/><path class="cls-3" d="M557.83,325.71H473a16,16,0,0,1-16-16V89.48a16,16,0,0,1,16-16h84.86a16,16,0,0,1,16,16V309.75A16,16,0,0,1,557.83,325.71ZM473,74A15.48,15.48,0,0,0,457.5,89.48V309.75A15.48,15.48,0,0,0,473,325.21h84.86a15.48,15.48,0,0,0,15.47-15.46V89.48A15.48,15.48,0,0,0,557.83,74Z"/><path class="cls-3" d="M557.48,329.45H473a19.38,19.38,0,0,1-19.36-19.36V161.92h-1.14V151.45h1.14V140.62h-1.14V130.31h1.14V118.56h-1.14V105.94h1.14V89.73A19.38,19.38,0,0,1,473,70.37h62.72V69.21h21.42v1.16h.37a19.38,19.38,0,0,1,19.36,19.36V310.09A19.38,19.38,0,0,1,557.48,329.45Zm-104-168.54h1.14V310.09A18.38,18.38,0,0,0,473,328.45h84.52a18.38,18.38,0,0,0,18.36-18.36V89.73a18.38,18.38,0,0,0-18.36-18.36h-1.37V70.21H536.69v1.16H473a18.38,18.38,0,0,0-18.36,18.36v17.21h-1.14v10.62h1.14v13.75h-1.14v8.31h1.14v12.82h-1.14Z"/><path class="cls-3" d="M684.07,86.3a2.53,2.53,0,1,1,2.53-2.53A2.53,2.53,0,0,1,684.07,86.3Zm0-4.55a2,2,0,1,0,2,2A2,2,0,0,0,684.07,81.75Z"/><path class="cls-3" d="M693.53,94.92H674.19a1.38,1.38,0,0,1,0-2.74h19.34a1.38,1.38,0,0,1,0,2.74Zm-19.34-2.24a.89.89,0,0,0,0,1.74h19.34a.89.89,0,0,0,0-1.74Z"/><path class="cls-3" d="M725.49,71.1H704V69.46h21.54Zm-21-.5H725V70H704.45Z"/><path class="cls-3" d="M622.38,118.31h-1.64V106.19h1.64Zm-1.14-.5h.64V106.69h-.64Z"/><path class="cls-3" d="M622.38,143.09h-1.64V125.14h1.64Zm-1.14-.5h.64V125.64h-.64Z"/><path class="cls-3" d="M622.38,167h-1.64V149.11h1.64Zm-1.14-.5h.64V149.61h-.64Z"/><path class="cls-3" d="M678.85,185.8,673.44,206h7.74v-7.33H683V206h4.58v1.83H683v10.08h-1.83V207.8h-9.62V206l5.36-20.16Z"/><path class="cls-3" d="M693.56,190.84l1.79-5.5h2l-2.33,5.5Z"/><path class="cls-3" d="M705.61,190.84l1.79-5.5h2l-2.34,5.5Z"/><rect class="cls-4" x="610.78" y="255.94" width="81.63" height="0.5" transform="translate(108.8 698.44) rotate(-60.63)"/><rect class="cls-4" x="674.86" y="143.53" width="82.18" height="0.5" transform="matrix(0.51, -0.86, 0.86, 0.51, 229.84, 688.72)"/><path class="cls-3" d="M737.05,292.07H631.33V107.82H737.05Zm-105.23-.5H736.55V108.32H631.83Z"/><path class="cls-3" d="M727.44,325.71H641a16,16,0,0,1-16-16V89.48a16,16,0,0,1,16-16h86.46a16,16,0,0,1,16,16V309.75A16,16,0,0,1,727.44,325.71ZM641,74a15.48,15.48,0,0,0-15.46,15.46V309.75A15.48,15.48,0,0,0,641,325.21h86.46a15.48,15.48,0,0,0,15.46-15.46V89.48A15.48,15.48,0,0,0,727.44,74Z"/><path class="cls-3" d="M727.09,329.45H641a19.38,19.38,0,0,1-19.36-19.36V167.2h-1.14V148.86h1.14v-5.54h-1.14V124.89h1.14v-6.32h-1.14V105.94h1.14V89.73A19.38,19.38,0,0,1,641,70.37H703.7V69.21h22v1.16h1.36a19.38,19.38,0,0,1,19.36,19.36V310.09A19.38,19.38,0,0,1,727.09,329.45ZM621.48,166.2h1.14V310.09A18.38,18.38,0,0,0,641,328.45h86.11a18.38,18.38,0,0,0,18.36-18.36V89.73a18.38,18.38,0,0,0-18.36-18.36h-2.36V70.21h-20v1.16H641a18.38,18.38,0,0,0-18.36,18.36v17.21h-1.14v10.62h1.14v8.32h-1.14v16.44h1.14v7.54h-1.14Z"/><path class="cls-3" d="M684,321.35a11.66,11.66,0,1,1,11.66-11.66A11.68,11.68,0,0,1,684,321.35Zm0-22.83a11.16,11.16,0,1,0,11.16,11.17A11.18,11.18,0,0,0,684,298.52Z"/><path class="cls-3" d="M687,313.73h-6a1.3,1.3,0,0,1-1.3-1.3v-5.5a1.3,1.3,0,0,1,1.3-1.3h6a1.3,1.3,0,0,1,1.3,1.3v5.5A1.3,1.3,0,0,1,687,313.73Zm-6-7.6a.8.8,0,0,0-.8.8v5.5a.8.8,0,0,0,.8.8h6a.8.8,0,0,0,.8-.8v-5.5a.8.8,0,0,0-.8-.8Z"/></g></g></g></svg>