<svg xmlns="http://www.w3.org/2000/svg" viewBox="6688 -4720 2596 2599"><defs><style>.a{fill:#212c43;}.b{fill:#fff;stroke:#95989a;stroke-width:1px;}.c{fill:#95989a;font-size:40px;font-family:HelveticaNeue-CondensedBlack, Helvetica Neue;font-weight:800;}.d{stroke:none;}.e{fill:none;}</style></defs><rect class="a" width="37" height="761" transform="translate(6801 -3012)"/><rect class="a" width="37" height="769" transform="translate(7598 -3049) rotate(90)"/><rect class="a" width="37" height="769" transform="translate(8113 -2789) rotate(90)"/><rect class="a" width="37" height="769" transform="translate(8634 -3316) rotate(90)"/><rect class="a" width="37" height="769" transform="translate(9178 -3832) rotate(90)"/><rect class="a" width="37" height="769" transform="translate(7587 -2269) rotate(90)"/><rect class="a" width="37" height="780" transform="translate(7580 -3031)"/><g transform="translate(261 -520)"><g class="b" transform="translate(6428 -2641)"><circle class="d" cx="130" cy="130" r="130"/><circle class="e" cx="130" cy="130" r="129.5"/></g><text class="c" transform="translate(6509 -2496)"><tspan x="0" y="0">BUILD</tspan></text></g><g transform="translate(50 -188)"><g class="b" transform="translate(6638 -2193)"><circle class="d" cx="130" cy="130" r="130"/><circle class="e" cx="130" cy="130" r="129.5"/></g><text class="c" transform="translate(6705 -2048)"><tspan x="0" y="0">SKETCH</tspan></text></g><g transform="translate(538 -252)"><g class="b" transform="translate(6930 -2909)"><circle class="d" cx="130" cy="130" r="130"/><circle class="e" cx="130" cy="130" r="129.5"/></g><text class="c" transform="translate(7021 -2764)"><tspan x="0" y="0">TEST</tspan></text></g><g transform="translate(484 100)"><g class="b" transform="translate(6984 -2481)"><circle class="d" cx="130" cy="130" r="130"/><circle class="e" cx="130" cy="130" r="129.5"/></g><text class="c" transform="translate(7049 -2336)"><tspan x="0" y="0">ITERATE</tspan></text></g><g transform="translate(520 -520)"><rect class="a" width="37" height="761" transform="translate(6801 -3012)"/><rect class="a" width="37" height="769" transform="translate(7598 -3049) rotate(90)"/><rect class="a" width="37" height="780" transform="translate(7580 -3031)"/><g transform="translate(261 -520)"><g class="b" transform="translate(6428 -2641)"><circle class="d" cx="130" cy="130" r="130"/><circle class="e" cx="130" cy="130" r="129.5"/></g><text class="c" transform="translate(6509 -2496)"><tspan x="0" y="0">BUILD</tspan></text></g><g transform="translate(50 -188)"><g class="b" transform="translate(6638 -2193)"><circle class="d" cx="130" cy="130" r="130"/><circle class="e" cx="130" cy="130" r="129.5"/></g><text class="c" transform="translate(6705 -2048)"><tspan x="0" y="0">SKETCH</tspan></text></g><g transform="translate(538 -252)"><g class="b" transform="translate(6930 -2909)"><circle class="d" cx="130" cy="130" r="130"/><circle class="e" cx="130" cy="130" r="129.5"/></g><text class="c" transform="translate(7021 -2764)"><tspan x="0" y="0">TEST</tspan></text></g><g transform="translate(484 100)"><g class="b" transform="translate(6984 -2481)"><circle class="d" cx="130" cy="130" r="130"/><circle class="e" cx="130" cy="130" r="129.5"/></g><text class="c" transform="translate(7049 -2336)"><tspan x="0" y="0">ITERATE</tspan></text></g></g><g transform="translate(1036 -1039)"><rect class="a" width="37" height="761" transform="translate(6801 -3012)"/><rect class="a" width="37" height="769" transform="translate(7598 -3049) rotate(90)"/><rect class="a" width="37" height="780" transform="translate(7580 -3031)"/><g transform="translate(261 -520)"><g class="b" transform="translate(6428 -2641)"><circle class="d" cx="130" cy="130" r="130"/><circle class="e" cx="130" cy="130" r="129.5"/></g><text class="c" transform="translate(6509 -2496)"><tspan x="0" y="0">BUILD</tspan></text></g><g transform="translate(50 -188)"><g class="b" transform="translate(6638 -2193)"><circle class="d" cx="130" cy="130" r="130"/><circle class="e" cx="130" cy="130" r="129.5"/></g><text class="c" transform="translate(6705 -2048)"><tspan x="0" y="0">SKETCH</tspan></text></g><g transform="translate(538 -252)"><g class="b" transform="translate(6930 -2909)"><circle class="d" cx="130" cy="130" r="130"/><circle class="e" cx="130" cy="130" r="129.5"/></g><text class="c" transform="translate(7021 -2764)"><tspan x="0" y="0">TEST</tspan></text></g><g transform="translate(484 100)"><g class="b" transform="translate(6984 -2481)"><circle class="d" cx="130" cy="130" r="130"/><circle class="e" cx="130" cy="130" r="129.5"/></g><text class="c" transform="translate(7049 -2336)"><tspan x="0" y="0">ITERATE</tspan></text></g><g transform="translate(520 -520)"><rect class="a" width="37" height="761" transform="translate(6801 -3012)"/><rect class="a" width="37" height="769" transform="translate(7598 -3049) rotate(90)"/><rect class="a" width="37" height="780" transform="translate(7580 -3031)"/><g transform="translate(261 -520)"><g class="b" transform="translate(6428 -2641)"><circle class="d" cx="130" cy="130" r="130"/><circle class="e" cx="130" cy="130" r="129.5"/></g><text class="c" transform="translate(6509 -2496)"><tspan x="0" y="0">BUILD</tspan></text></g><g transform="translate(50 -188)"><g class="b" transform="translate(6638 -2193)"><circle class="d" cx="130" cy="130" r="130"/><circle class="e" cx="130" cy="130" r="129.5"/></g><text class="c" transform="translate(6705 -2048)"><tspan x="0" y="0">SKETCH</tspan></text></g><g transform="translate(538 -252)"><g class="b" transform="translate(6930 -2909)"><circle class="d" cx="130" cy="130" r="130"/><circle class="e" cx="130" cy="130" r="129.5"/></g><text class="c" transform="translate(7021 -2764)"><tspan x="0" y="0">TEST</tspan></text></g><g transform="translate(484 100)"><g class="b" transform="translate(6984 -2481)"><circle class="d" cx="130" cy="130" r="130"/><circle class="e" cx="130" cy="130" r="129.5"/></g><text class="c" transform="translate(7049 -2336)"><tspan x="0" y="0">ITERATE</tspan></text></g></g></g></svg>