<svg xmlns="http://www.w3.org/2000/svg" width="759" height="225" viewBox="0 0 759 225"><defs><style>.cls-1{fill:#fff;}</style></defs><title>Asset 1</title><g id="Layer_2" data-name="Layer 2"><g id="Layer_1-2" data-name="Layer 1"><path class="cls-1" d="M1,213V1H760q0,106,0,212h-7.5V202l-10.18-.55V143.73c-9.61-6-18.43-4.78-27.75-.26v52.37h-10.7V185H689.79V160.74c-6.83,1.82-7.82-5.24-11.52-6.84l-10.82,8.43a4.66,4.66,0,0,0-2,3.92q0,10.22.39,20.45c.13,3.46-1.43,3.86-5.14,2.83v-32c-4.89,7.16-11.72-.24-16.5,3.11-.72.5-3.36-1.74-5.73-3.06-.3,7.66-.52,15.62-1,23.56-.07,1.15-1.49,2.21-2.28,3.31-.89-1.14-2.5-2.26-2.55-3.44-.26-6.18-.12-12.38-.12-17.8l-9.45-3.61-.33-2.81-14.22,6.74V202c-6.52-7.64-8.61-.13-10.42,1.33-4.79-1.78-8.23-3.19-11.77-4.3-1.67-.53-4.88-.16-5-.78-.6-2.41-.24-5-.24-9.06-19.52-11.88-41.08-8.1-62.65-1.28-2.49-8.6,2.18-17.76-3.55-25.88-1.24,2.73-2.23,5-3.91.88-1.56-3.81-4.38-5.17-8.44-4.5-1.93.31-3.94.05-7.27.05-.72,7-1.77,13.7-2,20.39-.34,9.65-.07,19.33-.11,29,0,1.68-.27,3.36-.42,5L491,213a29.44,29.44,0,0,1-.85-5q-.09-28.25,0-56.49c0-14.5-.3-12.84-12.15-12.44-6.71.22-7.2.49-7.23,7.43-.06,14.5,0,29,0,43.49,0,1.69-.19,3.38-.29,5.06l-1.49,0q0-2.55,0-5.1c0-22.33,0-44.66-.08-67a11.58,11.58,0,0,0-1.8-5c-1.75-3.21-3.72-6.29-5.66-9.52h-4.79c-.62,1.51-.78,3.45-1.77,4.05-4.29,2.62-5.76,6.42-5.75,11.16q0,31,0,62c0,1.78,0,3.56,0,5.28l-11.82,4.28v-53a34.43,34.43,0,0,1-5.1-1.09c-6.22-2.48-9.52-.43-9.53,6.08,0,14.5,0,29,0,43.49a34.37,34.37,0,0,1-.78,5.12l-1.66-.2V125.13H407.38c0,10.26-.17,20.07.09,29.87.09,3.4-1.44,4.81-4.22,5.61-7.08,2-9.76,5.41-10,12.59a32.24,32.24,0,0,1-.44,3.37,2.41,2.41,0,0,1-1.08-1.95q-1-35.2-1.91-70.4c-.05-2,0-3.93,0-5.9l-2.53,2.11-5.77-11.72-1.87,1.85-9.31,8.69c-.75,11.32-2,23.24-2.23,35.18-.38,19.82-.1,39.66-.1,59.49q0,2.48,0,5l-1.31,0V113.4c-3.22-.45-5.88-.58-8.42-1.21-5.47-1.36-7.75.24-7.75,5.85q0,38.74,0,77.49c0,1.75-.32,3.5-.49,5.25l-1.53-.14q0-2.69,0-5.38c0-15,0-30-.06-45,0-1.75,0-4.13-1-5.14-6.86-6.65-14-13-22.21-20.52V187l-1.81.24c-.43-2-1.24-4-1.24-6q-.12-46.24,0-92.49c0-3.44.76-6.88.79-10.32A5.48,5.48,0,0,0,321.09,75a27.72,27.72,0,0,0-4.2-2.82l-14,3.34v99.09c-2.89.77-6,.67-7.36,2.16-3.19,3.56-5.58,7.85-8.21,11.9-1.54,2.38-1.25,4.14,1.58,5.61,4.54,2.36,5.28,6.42,2.18,10.53-2,2.6-4,5.1-7,8.76v-6.32c0-28.33-.28-56.66.21-85,.11-6.49-2.34-11.64-4.53-18.34-1.72,5.66-4.62,8.31-9.48,7l-2.91-3.77a21.46,21.46,0,0,0-2.05,3.43c-.71,1.89-1.6,3.9-1.61,5.86-.11,25.5-.06,51-.08,76.49,0,1.89-.17,3.78-.28,6l-5.32-1.26L256,179.95c2.36-1.36,7-3.18,2.74-5.49-3.93-2.14-3.92-4.81-4.4-7.86-.78-4.93-1.14-9.93-1.91-14.86-5.5-35-6-69.94,0-105,.9-5.22,2.82-7.2,7.84-6.84-3.17-5.45.78-5.66,4.36-6.13l.37-1.5-15.74-8.65c-.81-1.89-2.32-3.27-3.51-4.88s-2.37-3.18-2.68-4.93c-.45-2.57-.12-5.28-.12-7.93l-1.43-.34c3.28,8.36-3.51,12.84-6.2,18l-15.65,8.93.36,1.42c4.19.09,7,1.26,5.51,4.52,2.31,2.09,5.39,3.51,5.69,5.38,3.56,21.71,6.77,43.56,5,65.61-1.59,20.24-4.21,40.4-6.57,60.58-.16,1.38-1.76,2.92-3.08,3.75-2.82,1.76-3,3.28-.25,5.13.71.48,1.39,1,3.08,2.26h-9.06c.22-34.34,1.78-68.66-3.13-102.86l-.55,10.42-23.49-3.74c-.57,8.09-1.5,15.56-1.56,23-.19,25.5,0,51-.16,76.49,0,3.42-1.26,6.82-2,10.47-1.1-.55-1.38-.63-1.38-.7.1-10.35.67-20.72.1-31-.19-3.39,2.66-9.91-5.51-9.51l1.32-3.56-10.42-.53c0-6.79.23-13.12-.06-19.43-.31-6.69,2.23-14-3.09-19.76-2.62-2.82-3.1-9-9-7.18-2,.62-3.81,3-5,5-1.89,3.28-4.91,5.8-4.83,10.39.3,19.49.14,39,.11,58.49,0,1.6-.22,3.21-.34,4.81l-1.33-.13v-73l-7-.77c-1.77-3.7-5.73-4.12-8.23-.86a5.54,5.54,0,0,1-3.13,1.53,22.34,22.34,0,0,1-3.81.28c-1.28,5.85,3.27,11.76-3.22,15.93-.48.31-1.12,1.22-1,1.52,1.86,3.87-3,2.26-3.4,4.27-5.2-1.14-5.19,2.35-5.18,5.83,0,2.83,0,5.67,0,8.5,0,6.17.09,12.33-.09,18.5,0,1.13-1.16,2.23-1.79,3.35a15.53,15.53,0,0,1-2.19-3.5,14,14,0,0,1-.08-4c0-20,0-40,0-60.45-2.42-.78-4.8-2.12-7.19-2.16-2.76,0-5.53,1.53-8.32,1.62-7.78.25-7.15.06-6.86,7.66.51,13.12.14,26.27.14,39.87L74.46,142.2,75.69,124c-5.72-7.72-11.63-1.93-17.93-.82,1,10.73,3.52,21.7-2.89,32.4L52.69,148H45.26l-4.71,19.51a3.73,3.73,0,0,1-1.24.23c-4.39,0-9.85-2.8-11.27,4.55,0,.21-.51.39-.8.47-4,1.17-8.08,2.32-11.17,3.2,0,3.06-.06,5.41,0,7.75,0,1.22.64,2.46.49,3.63-.25,2-1.42,4.1-1.21,6,.28,2.61-.45,4.48-3,4.65-1.75.11-3.52,0-5.86,0v14.56Z" transform="translate(-1 -1)"/><path d="M1,213l5.53-.33V198.11c2.34,0,4.11.09,5.86,0,2.54-.17,3.27-2,3-4.65-.21-1.95,1-4,1.21-6,.14-1.17-.45-2.41-.49-3.63-.09-2.34,0-4.68,0-7.75,3.08-.88,7.13-2,11.17-3.2.3-.09.76-.27.8-.47,1.43-7.35,6.88-4.59,11.27-4.55a3.73,3.73,0,0,0,1.24-.23L45.26,148h7.43l2.18,7.53c6.4-10.7,3.89-21.67,2.89-32.4,6.3-1.11,12.21-6.9,17.93.82l-1.23,18.2,14.41,3.71c0-13.6.37-26.75-.14-39.87-.29-7.59-.92-7.41,6.86-7.66,2.79-.09,5.55-1.66,8.32-1.62,2.4,0,4.78,1.38,7.19,2.16,0,20.46,0,40.45,0,60.45a14,14,0,0,0,.08,4,15.53,15.53,0,0,0,2.19,3.5c.62-1.12,1.75-2.22,1.79-3.35.18-6.16.09-12.33.09-18.5,0-2.83,0-5.67,0-8.5,0-3.49,0-7,5.18-5.83.35-2,5.26-.4,3.4-4.27-.14-.29.5-1.21,1-1.52,6.49-4.17,1.93-10.09,3.22-15.93a22.34,22.34,0,0,0,3.81-.28,5.54,5.54,0,0,0,3.13-1.53c2.5-3.26,6.45-2.84,8.23.86l7,.77v73l1.33.13c.12-1.6.34-3.21.34-4.81,0-19.5.19-39-.11-58.49-.07-4.59,2.94-7.11,4.83-10.39,1.15-2,3-4.34,5-5,5.91-1.82,6.39,4.36,9,7.18,5.33,5.74,2.78,13.07,3.09,19.76.3,6.31.06,12.64.06,19.43l10.42.53-1.32,3.56c8.17-.41,5.32,6.12,5.51,9.51.57,10.31,0,20.68-.1,31,0,.07.28.15,1.38.7.72-3.64,2-7,2-10.47.16-25.5,0-51,.16-76.49.06-7.47,1-14.94,1.56-23l23.49,3.74.55-10.42c4.91,34.2,3.35,68.52,3.13,102.86h9.06c-1.69-1.25-2.37-1.78-3.08-2.26-2.72-1.86-2.57-3.37.25-5.13,1.33-.83,2.92-2.38,3.08-3.75,2.36-20.17,5-40.34,6.57-60.58,1.73-22.05-1.48-43.9-5-65.61-.31-1.87-3.39-3.28-5.69-5.38,1.45-3.26-1.32-4.44-5.51-4.52l-.36-1.42,15.65-8.93c2.69-5.13,9.48-9.61,6.2-18l1.43.34c0,2.65-.34,5.36.12,7.93.31,1.75,1.57,3.42,2.68,4.93s2.7,3,3.51,4.88l15.74,8.65-.37,1.5c-3.58.47-7.53.68-4.36,6.13-5-.36-6.95,1.62-7.84,6.84-6,35-5.54,70,0,105,.78,4.93,1.13,9.93,1.91,14.86.48,3,.46,5.72,4.4,7.86,4.25,2.31-.39,4.12-2.74,5.49l2.06,17.75,5.32,1.26c.11-2.22.28-4.11.28-6,0-25.5,0-51,.08-76.49,0-2,.9-4,1.61-5.86a21.46,21.46,0,0,1,2.05-3.43l2.91,3.77c4.86,1.31,7.76-1.34,9.48-7,2.19,6.7,4.64,11.85,4.53,18.34-.49,28.32-.21,56.66-.21,85v6.32c2.91-3.66,5-6.16,7-8.76,3.09-4.11,2.36-8.17-2.18-10.53-2.82-1.47-3.12-3.23-1.58-5.61,2.63-4.05,5-8.34,8.21-11.9,1.34-1.5,4.47-1.39,7.36-2.16V75.53l14-3.34a27.72,27.72,0,0,1,4.2,2.82,5.48,5.48,0,0,1,1.86,3.42c0,3.44-.78,6.88-.79,10.32q-.11,46.24,0,92.49c0,2,.81,4,1.24,6l1.81-.24V124.59c8.2,7.51,15.35,13.87,22.21,20.52,1,1,1,3.39,1,5.14.08,15,.05,30,.06,45q0,2.69,0,5.38l1.53.14c.17-1.75.48-3.5.49-5.25q0-38.74,0-77.49c0-5.61,2.28-7.21,7.75-5.85,2.54.63,5.2.77,8.42,1.21v85.45l1.31,0q0-2.48,0-5c0-19.83-.28-39.67.1-59.49.23-11.94,1.48-23.86,2.23-35.18l9.31-8.69,1.87-1.85,5.77,11.72,2.53-2.11c0,2,0,3.93,0,5.9q.93,35.2,1.91,70.4a2.41,2.41,0,0,0,1.08,1.95,32.24,32.24,0,0,0,.44-3.37c.2-7.18,2.88-10.56,10-12.59,2.78-.79,4.31-2.21,4.22-5.61-.26-9.8-.09-19.62-.09-29.87h12.75v70.41l1.66.2a34.37,34.37,0,0,0,.78-5.12c.06-14.5,0-29,0-43.49,0-6.51,3.3-8.56,9.53-6.08a34.43,34.43,0,0,0,5.1,1.09v53l11.82-4.28c0-1.72,0-3.5,0-5.28q0-31,0-62c0-4.74,1.46-8.54,5.75-11.16,1-.6,1.15-2.54,1.77-4.05h4.79c1.94,3.23,3.91,6.31,5.66,9.52a11.58,11.58,0,0,1,1.8,5c.12,22.33.08,44.66.08,67q0,2.55,0,5.1l1.49,0c.1-1.69.29-3.38.29-5.06,0-14.5,0-29,0-43.49,0-6.93.52-7.2,7.23-7.43,11.85-.39,12.17-2.06,12.15,12.44q0,28.25,0,56.49a29.44,29.44,0,0,0,.85,5l1.76-.15c.15-1.68.41-3.36.42-5,0-9.67-.23-19.34.11-29,.23-6.69,1.28-13.36,2-20.39,3.32,0,5.34.26,7.27-.05,4.06-.66,6.88.69,8.44,4.5,1.68,4.12,2.67,1.86,3.91-.88,5.73,8.12,1.06,17.28,3.55,25.88,21.56-6.82,43.13-10.6,62.65,1.28,0,4-.35,6.65.24,9.06.15.62,3.37.25,5,.78,3.53,1.12,7,2.53,11.77,4.3,1.81-1.45,3.9-9,10.42-1.33V163.55l14.22-6.74.33,2.81,9.45,3.61c0,5.41-.14,11.61.12,17.8,0,1.18,1.66,2.29,2.55,3.44.79-1.1,2.21-2.16,2.28-3.31.5-7.94.72-15.9,1-23.56,2.37,1.32,5,3.57,5.73,3.06,4.78-3.34,11.61,4.05,16.5-3.11v32c3.71,1,5.28.64,5.14-2.83q-.4-10.22-.39-20.45a4.66,4.66,0,0,1,2-3.92l10.82-8.43c3.69,1.6,4.69,8.66,11.52,6.84V185h14.08v10.82h10.7V143.47c9.32-4.52,18.14-5.76,27.75.26v57.74l10.18.55v11H760v13H1Q1,219.5,1,213Zm235.47-41.18V146.4l-1.56-.05-3.32,25.47ZM235.74,195l1.11-.3v-14c-7-.81-7.44-.45-5.44,5.28A87.09,87.09,0,0,0,235.74,195Zm19.18-3c.33-10.66-.3-11.92-5.8-11l1.09,11ZM252.17,168c-.15-9.44-.17-9.5-4-9.43V168Zm-17-23.8c3.29-2.18,3.9-9.48,2.27-20.55Zm11.29-86h.35l1.33-16.77-1.67-.07Z" transform="translate(-1 -1)"/><path class="cls-1" d="M236.47,171.82h-4.88l3.32-25.47,1.56.05Z" transform="translate(-1 -1)"/><path class="cls-1" d="M235.74,195a87.09,87.09,0,0,1-4.33-9.05c-2-5.73-1.55-6.09,5.44-5.28v14Z" transform="translate(-1 -1)"/><path class="cls-1" d="M254.91,191.91h-4.71l-1.09-11C254.61,180,255.25,181.25,254.91,191.91Z" transform="translate(-1 -1)"/><path class="cls-1" d="M252.17,168h-4v-9.43C252,158.46,252,158.52,252.17,168Z" transform="translate(-1 -1)"/><path class="cls-1" d="M235.21,144.16l2.27-20.55C239.11,134.69,238.5,142,235.21,144.16Z" transform="translate(-1 -1)"/><path class="cls-1" d="M246.5,58.11V41.28l1.67.07-1.33,16.77Z" transform="translate(-1 -1)"/></g></g></svg>